# xmcd
#
# Track frame offsets:
#	150
#	13896
#	29778
#	42329
#	56765
#	69630
#	84993
#	100785
#	121089
#	134050
#	150923
#	167984
#	181105
#	195978
#	211805
#	225626
#	239472
#	253739
#	269039
#	285826
#
# Disc length: 4000 seconds
#
# Revision: 0
# Processed by: cddbd v1.5.2PL0 Copyright (c) Steve Scherf et al.
# Submitted via: audiograbber 1.83.01
#
DISCID=190f9e14
DTITLE=Aaron Tippin - Ultimate Aaron Tippin
DYEAR=2004
DGENRE=Country
TTITLE0=You've Got to Stand for Something
TTITLE1=I Wonder How Far It Is Over You
TTITLE2=There Ain't Nothin' Wrong With The Radio
TTITLE3=I Wouldn't Have It Any Other Way
TTITLE4=I Was Born With A Broken Heart
TTITLE5=My Blue Angel
TTITLE6=Working Man's Ph.D.
TTITLE7=Call Of The Wild
TTITLE8=Honky-Tonk Superman
TTITLE9=Whole Lotta Love On The Line
TTITLE10=I Got It Honest
TTITLE11=She Feels Like A BrandNew Man
TTITLE12=That's as Close as I'll Get To Loving You
TTITLE13=Without Your Love
TTITLE14=Country Boy's Tool Box
TTITLE15=Ten Pound Hammer
TTITLE16=How's the Radio Know
TTITLE17=I Can Help
TTITLE18=That's What Happens When I Hold
TTITLE19=A Door
EXTD=
EXTT0=
EXTT1=
EXTT2=
EXTT3=
EXTT4=
EXTT5=
EXTT6=
EXTT7=
EXTT8=
EXTT9=
EXTT10=
EXTT11=
EXTT12=
EXTT13=
EXTT14=
EXTT15=
EXTT16=
EXTT17=
EXTT18=
EXTT19=
PLAYORDER=
